<svg width="35" height="35" viewBox="0 0 35 35" fill="none" xmlns="http://www.w3.org/2000/svg">
<path d="M29.1667 10.2084H28.1459C28.4798 9.52737 28.6548 8.77925 28.6577 8.02091C28.6577 6.66721 28.12 5.36894 27.1628 4.41172C26.2055 3.45451 24.9073 2.91675 23.5536 2.91675C21.0496 2.91675 18.865 4.66675 17.2375 6.53487C15.1667 4.14466 13.0506 2.91675 10.9375 2.91675C9.58381 2.91675 8.28555 3.45451 7.32833 4.41172C6.37111 5.36894 5.83335 6.66721 5.83335 8.02091C5.83773 8.77925 6.01273 9.52737 6.34523 10.2084H5.83335C5.05981 10.2084 4.31794 10.5157 3.77096 11.0627C3.22398 11.6097 2.91669 12.3515 2.91669 13.1251V16.0417C2.91669 16.4285 3.07033 16.7995 3.34382 17.0729C3.61731 17.3464 3.98825 17.5001 4.37502 17.5001H30.625C31.0118 17.5001 31.3827 17.3464 31.6562 17.0729C31.9297 16.7995 32.0834 16.4285 32.0834 16.0417V13.1251C32.0834 12.3515 31.7761 11.6097 31.2291 11.0627C30.6821 10.5157 29.9402 10.2084 29.1667 10.2084ZM14.6679 10.2084H10.9375C10.3574 10.2084 9.80096 9.97795 9.39072 9.56771C8.98049 9.15747 8.75002 8.60108 8.75002 8.02091C8.75002 7.44075 8.98049 6.88435 9.39072 6.47412C9.80096 6.06388 10.3574 5.83341 10.9375 5.83341C12.25 5.83341 13.8542 6.933 15.4467 8.928C15.1273 9.41946 14.875 9.85404 14.6679 10.2084ZM23.5638 10.2084H18.1067C19.4673 8.21341 21.5644 5.83341 23.5594 5.83341C24.1396 5.83341 24.696 6.06388 25.1062 6.47412C25.5164 6.88435 25.7469 7.44075 25.7469 8.02091C25.7469 8.60108 25.5164 9.15747 25.1062 9.56771C24.696 9.97795 24.1396 10.2084 23.5594 10.2084H23.5638ZM18.9584 20.4167H16.0417V32.0834H18.9584V20.4167ZM13.125 20.4167H5.83335V29.1667C5.83335 29.9403 6.14064 30.6822 6.68763 31.2291C7.23461 31.7761 7.97647 32.0834 8.75002 32.0834H13.125V20.4167ZM21.875 20.4167V32.0834H26.25C27.0236 32.0834 27.7654 31.7761 28.3124 31.2291C28.8594 30.6822 29.1667 29.9403 29.1667 29.1667V20.4167H21.875Z" fill="#A4A4A4"/>
</svg>
