<svg width="30" height="30" viewBox="0 0 30 30" fill="none" xmlns="http://www.w3.org/2000/svg">
<path fill-rule="evenodd" clip-rule="evenodd" d="M5 3.75C4.66848 3.75 4.35054 3.8817 4.11612 4.11612C3.8817 4.35054 3.75 4.66848 3.75 5V15C3.75 15.3315 3.8817 15.6495 4.11612 15.8839C4.35054 16.1183 4.66848 16.25 5 16.25H6.25V18.75C6.25005 18.9972 6.32339 19.2388 6.46075 19.4443C6.5981 19.6498 6.79331 19.81 7.02168 19.9046C7.25006 19.9992 7.50135 20.0239 7.74379 19.9757C7.98623 19.9275 8.20894 19.8085 8.38375 19.6337L11.7675 16.25H18.75C19.0815 16.25 19.3995 16.1183 19.6339 15.8839C19.8683 15.6495 20 15.3315 20 15V5C20 4.66848 19.8683 4.35054 19.6339 4.11612C19.3995 3.8817 19.0815 3.75 18.75 3.75H5Z" fill="#A4A4A4"/>
<path fill-rule="evenodd" clip-rule="evenodd" d="M10.0288 21.5188C10.0705 21.4804 10.1113 21.4413 10.1513 21.4013L12.8038 18.75H18.7501C19.7446 18.75 20.6984 18.3549 21.4017 17.6517C22.105 16.9484 22.5001 15.9946 22.5001 15V10H25.0001C25.3316 10 25.6495 10.1317 25.8839 10.3661C26.1184 10.6005 26.2501 10.9185 26.2501 11.25V21.25C26.2501 21.5815 26.1184 21.8995 25.8839 22.1339C25.6495 22.3683 25.3316 22.5 25.0001 22.5H23.7501V25C23.75 25.2472 23.6767 25.4888 23.5393 25.6943C23.402 25.8998 23.2068 26.06 22.9784 26.1546C22.75 26.2492 22.4987 26.2739 22.2563 26.2257C22.0138 26.1775 21.7911 26.0585 21.6163 25.8838L18.2326 22.5H11.2501C10.9651 22.5001 10.6887 22.4029 10.4666 22.2244C10.2445 22.046 10.0901 21.797 10.0288 21.5188Z" fill="#A4A4A4"/>
</svg>
